<svg height='100px' width='100px'  fill="#F5D327" xmlns="http://www.w3.org/2000/svg" xmlns:xlink="http://www.w3.org/1999/xlink" version="1.1" x="0px" y="0px" viewBox="0 0 100 100" enable-background="new 0 0 100 100" xml:space="preserve"><g><path d="M49.892,4.464c-24.996,0-45.333,20.337-45.333,45.333c0,24.997,20.337,45.334,45.333,45.334   c24.997,0,45.334-20.337,45.334-45.334C95.226,24.801,74.889,4.464,49.892,4.464z M49.892,88.836   c-21.526,0-39.038-17.513-39.038-39.039c0-21.525,17.512-39.038,39.038-39.038s39.039,17.513,39.039,39.038   C88.931,71.323,71.418,88.836,49.892,88.836z"></path><path d="M69.197,27.594c-2.924,0-5.294,2.371-5.294,5.296c0,1.743,0.846,3.285,2.146,4.25v10.393h-12.8V37.14   c1.3-0.965,2.146-2.507,2.146-4.25c0-2.925-2.371-5.296-5.294-5.296c-2.924,0-5.295,2.371-5.295,5.296   c0,1.743,0.847,3.285,2.146,4.25v10.393h-12.8V37.14c1.301-0.965,2.146-2.507,2.146-4.25c0-2.925-2.37-5.296-5.294-5.296   s-5.295,2.371-5.295,5.296c0,1.743,0.848,3.285,2.147,4.25v27.079c-1.3,0.966-2.147,2.507-2.147,4.251   c0,2.925,2.371,5.295,5.295,5.295s5.294-2.37,5.294-5.295c0-1.744-0.846-3.285-2.146-4.251V53.827h12.8v10.392   c-1.3,0.966-2.146,2.507-2.146,4.251c0,2.925,2.371,5.295,5.295,5.295c2.923,0,5.294-2.37,5.294-5.295   c0-1.744-0.846-3.285-2.146-4.251V53.827h15.947c1.738,0,3.147-1.409,3.147-3.147V37.14c1.3-0.965,2.147-2.507,2.147-4.25   C74.492,29.965,72.121,27.594,69.197,27.594z"></path></g></svg>